<svg xmlns:xlink="http://www.w3.org/1999/xlink" xmlns="http://www.w3.org/2000/svg" width="19" height="19" viewBox="0 0 19 19" fill="none"><g clip-path="url(#clip0_633_31235)" fill="none"><path d="M6.74328 11.0046L11.8658 13.9896M11.8583 5.75457L6.74328 8.73957M16.0508 4.62207C16.0508 5.86471 15.0434 6.87207 13.8008 6.87207C12.5581 6.87207 11.5508 5.86471 11.5508 4.62207C11.5508 3.37943 12.5581 2.37207 13.8008 2.37207C15.0434 2.37207 16.0508 3.37943 16.0508 4.62207ZM7.05078 9.87207C7.05078 11.1147 6.04342 12.1221 4.80078 12.1221C3.55814 12.1221 2.55078 11.1147 2.55078 9.87207C2.55078 8.62943 3.55814 7.62207 4.80078 7.62207C6.04342 7.62207 7.05078 8.62943 7.05078 9.87207ZM16.0508 15.1221C16.0508 16.3647 15.0434 17.3721 13.8008 17.3721C12.5581 17.3721 11.5508 16.3647 11.5508 15.1221C11.5508 13.8794 12.5581 12.8721 13.8008 12.8721C15.0434 12.8721 16.0508 13.8794 16.0508 15.1221Z" stroke="#5F6D68" stroke-width="1.5px" stroke-linecap="round" stroke-linejoin="round" fill="none"></path></g><defs><clipPath id="clip0_633_31235"><rect width="18" height="18" fill="white" transform="translate(0.300781 0.87207)"></rect></clipPath></defs></svg>